<?xml version="1.0" encoding="UTF-8"?>
<svg xmlns="http://www.w3.org/2000/svg" xmlns:xlink="http://www.w3.org/1999/xlink" width="3840" height="2160" viewBox="0 0 3840 2160">
<defs>
<g>
<g id="glyph-0-0">
<path d="M 0.367188 0.0234375 C 0.324219 0.0234375 0.285156 0.0195312 0.25 0.0078125 C 0.214844 -0.00390625 0.199219 -0.0273438 0.199219 -0.0664062 C 0.199219 -0.105469 0.21875 -0.132812 0.253906 -0.148438 C 0.289062 -0.167969 0.335938 -0.183594 0.390625 -0.199219 C 0.46875 -0.226562 0.546875 -0.257812 0.628906 -0.296875 C 0.710938 -0.332031 0.75 -0.40625 0.75 -0.515625 L 0.75 -2.308594 C 0.75 -2.457031 0.734375 -2.589844 0.699219 -2.703125 C 0.667969 -2.816406 0.578125 -2.886719 0.433594 -2.910156 C 0.410156 -2.914062 0.394531 -2.925781 0.378906 -2.941406 C 0.363281 -2.957031 0.359375 -2.984375 0.359375 -3.015625 C 0.359375 -3.070312 0.378906 -3.105469 0.425781 -3.117188 C 0.574219 -3.15625 0.695312 -3.195312 0.785156 -3.238281 C 0.871094 -3.28125 0.953125 -3.328125 1.019531 -3.378906 C 1.089844 -3.433594 1.175781 -3.488281 1.273438 -3.550781 C 1.285156 -3.554688 1.296875 -3.5625 1.308594 -3.570312 C 1.320312 -3.578125 1.332031 -3.582031 1.351562 -3.582031 C 1.382812 -3.582031 1.398438 -3.5625 1.398438 -3.523438 C 1.398438 -3.484375 1.394531 -3.40625 1.378906 -3.289062 C 1.363281 -3.167969 1.359375 -3.070312 1.359375 -2.992188 C 1.359375 -2.9375 1.363281 -2.902344 1.375 -2.890625 L 1.390625 -2.890625 C 1.519531 -3.011719 1.6875 -3.136719 1.894531 -3.261719 C 2.105469 -3.386719 2.371094 -3.449219 2.691406 -3.449219 C 2.890625 -3.449219 3.058594 -3.40625 3.191406 -3.320312 C 3.324219 -3.234375 3.4375 -3.085938 3.523438 -2.875 L 3.550781 -2.875 C 3.726562 -3.035156 3.929688 -3.171875 4.15625 -3.285156 C 4.386719 -3.394531 4.636719 -3.449219 4.90625 -3.449219 C 5.089844 -3.449219 5.246094 -3.394531 5.367188 -3.285156 C 5.488281 -3.171875 5.582031 -3.027344 5.644531 -2.851562 C 5.710938 -2.671875 5.742188 -2.484375 5.742188 -2.292969 L 5.742188 -0.515625 C 5.742188 -0.40625 5.78125 -0.332031 5.859375 -0.296875 C 5.9375 -0.261719 6.015625 -0.226562 6.101562 -0.199219 C 6.15625 -0.183594 6.199219 -0.167969 6.238281 -0.148438 C 6.273438 -0.132812 6.292969 -0.105469 6.292969 -0.0664062 C 6.292969 -0.0351562 6.277344 -0.0078125 6.253906 0.00390625 C 6.230469 0.0195312 6.1875 0.0234375 6.125 0.0234375 C 6.015625 0.0234375 5.925781 0.0195312 5.867188 0.0117188 C 5.804688 0.00390625 5.75 -0.00390625 5.695312 -0.0078125 C 5.644531 -0.015625 5.566406 -0.015625 5.464844 -0.015625 C 5.371094 -0.015625 5.292969 -0.015625 5.234375 -0.0078125 C 5.171875 -0.00390625 5.109375 0.00390625 5.042969 0.0117188 C 4.976562 0.0195312 4.886719 0.0234375 4.773438 0.0234375 C 4.722656 0.0234375 4.683594 0.0195312 4.652344 0.00390625 C 4.621094 -0.0117188 4.609375 -0.0351562 4.609375 -0.0664062 C 4.609375 -0.109375 4.625 -0.140625 4.664062 -0.160156 C 4.699219 -0.175781 4.746094 -0.1875 4.800781 -0.199219 C 4.890625 -0.222656 4.96875 -0.253906 5.046875 -0.292969 C 5.121094 -0.332031 5.15625 -0.40625 5.15625 -0.515625 L 5.15625 -2.265625 C 5.15625 -2.398438 5.128906 -2.527344 5.066406 -2.644531 C 5.003906 -2.765625 4.925781 -2.863281 4.824219 -2.941406 C 4.726562 -3.019531 4.613281 -3.058594 4.492188 -3.058594 C 4.351562 -3.058594 4.222656 -3.042969 4.105469 -3.007812 C 3.984375 -2.976562 3.871094 -2.917969 3.765625 -2.832031 C 3.609375 -2.710938 3.53125 -2.511719 3.53125 -2.234375 L 3.53125 -0.515625 C 3.53125 -0.40625 3.574219 -0.332031 3.65625 -0.292969 C 3.742188 -0.253906 3.824219 -0.222656 3.90625 -0.199219 C 3.964844 -0.1875 4.007812 -0.171875 4.046875 -0.152344 C 4.082031 -0.132812 4.101562 -0.105469 4.101562 -0.0664062 C 4.101562 -0.0351562 4.085938 -0.0078125 4.058594 0.00390625 C 4.03125 0.0195312 3.988281 0.0234375 3.933594 0.0234375 C 3.820312 0.0234375 3.734375 0.0195312 3.671875 0.0117188 C 3.605469 0.00390625 3.546875 -0.00390625 3.488281 -0.0078125 C 3.429688 -0.015625 3.351562 -0.015625 3.25 -0.015625 C 3.15625 -0.015625 3.078125 -0.015625 3.015625 -0.0078125 C 2.957031 -0.00390625 2.890625 0.00390625 2.824219 0.0117188 C 2.757812 0.0195312 2.667969 0.0234375 2.558594 0.0234375 C 2.515625 0.0234375 2.476562 0.0195312 2.441406 0.00390625 C 2.40625 -0.0117188 2.390625 -0.0351562 2.390625 -0.0664062 C 2.390625 -0.109375 2.414062 -0.140625 2.453125 -0.152344 C 2.496094 -0.167969 2.539062 -0.183594 2.582031 -0.199219 C 2.667969 -0.226562 2.75 -0.257812 2.828125 -0.296875 C 2.910156 -0.332031 2.949219 -0.40625 2.949219 -0.515625 L 2.949219 -2.265625 C 2.949219 -2.398438 2.917969 -2.527344 2.859375 -2.644531 C 2.796875 -2.765625 2.714844 -2.863281 2.617188 -2.941406 C 2.515625 -3.019531 2.40625 -3.058594 2.285156 -3.058594 C 2.144531 -3.058594 2.015625 -3.042969 1.894531 -3.007812 C 1.777344 -2.976562 1.664062 -2.917969 1.558594 -2.832031 C 1.410156 -2.722656 1.332031 -2.523438 1.332031 -2.234375 L 1.332031 -0.515625 C 1.332031 -0.40625 1.371094 -0.332031 1.449219 -0.296875 C 1.527344 -0.261719 1.609375 -0.226562 1.691406 -0.199219 C 1.734375 -0.183594 1.777344 -0.167969 1.820312 -0.152344 C 1.863281 -0.140625 1.882812 -0.109375 1.882812 -0.0664062 C 1.882812 -0.0351562 1.867188 -0.0078125 1.835938 0.00390625 C 1.804688 0.0195312 1.765625 0.0234375 1.714844 0.0234375 C 1.605469 0.0234375 1.519531 0.0195312 1.453125 0.0117188 C 1.390625 0.00390625 1.332031 -0.00390625 1.273438 -0.0078125 C 1.21875 -0.015625 1.140625 -0.015625 1.042969 -0.015625 C 0.949219 -0.015625 0.871094 -0.015625 0.8125 -0.0078125 C 0.753906 -0.00390625 0.691406 0.00390625 0.628906 0.0117188 C 0.566406 0.0195312 0.476562 0.0234375 0.367188 0.0234375 Z "/>
</g>
<g id="glyph-0-1">
<path d="M 1.949219 0.117188 C 1.636719 0.117188 1.359375 0.0429688 1.109375 -0.101562 C 0.859375 -0.246094 0.660156 -0.441406 0.511719 -0.695312 C 0.363281 -0.949219 0.292969 -1.234375 0.292969 -1.558594 C 0.292969 -1.792969 0.335938 -2.019531 0.429688 -2.242188 C 0.519531 -2.464844 0.648438 -2.667969 0.816406 -2.851562 C 0.984375 -3.035156 1.175781 -3.179688 1.398438 -3.289062 C 1.621094 -3.394531 1.859375 -3.449219 2.117188 -3.449219 C 2.4375 -3.449219 2.730469 -3.371094 2.988281 -3.214844 C 3.246094 -3.058594 3.453125 -2.855469 3.605469 -2.605469 C 3.757812 -2.351562 3.832031 -2.074219 3.832031 -1.773438 C 3.832031 -1.453125 3.761719 -1.148438 3.621094 -0.859375 C 3.480469 -0.570312 3.269531 -0.335938 2.992188 -0.152344 C 2.714844 0.0273438 2.367188 0.117188 1.949219 0.117188 Z M 2.125 -0.132812 C 2.3125 -0.132812 2.484375 -0.167969 2.632812 -0.242188 C 2.78125 -0.3125 2.898438 -0.429688 2.984375 -0.589844 C 3.050781 -0.71875 3.09375 -0.875 3.117188 -1.058594 C 3.140625 -1.242188 3.148438 -1.414062 3.148438 -1.574219 C 3.148438 -1.839844 3.101562 -2.097656 3.003906 -2.347656 C 2.90625 -2.59375 2.769531 -2.796875 2.597656 -2.953125 C 2.421875 -3.113281 2.214844 -3.191406 1.976562 -3.191406 C 1.824219 -3.191406 1.691406 -3.167969 1.570312 -3.121094 C 1.453125 -3.074219 1.339844 -2.984375 1.242188 -2.859375 C 1.128906 -2.71875 1.058594 -2.550781 1.023438 -2.351562 C 0.992188 -2.152344 0.976562 -1.949219 0.976562 -1.75 C 0.976562 -1.476562 1.023438 -1.21875 1.125 -0.972656 C 1.226562 -0.722656 1.359375 -0.523438 1.535156 -0.367188 C 1.707031 -0.210938 1.902344 -0.132812 2.125 -0.132812 Z "/>
</g>
<g id="glyph-0-2">
<path d="M 2.976562 0.160156 C 2.964844 0.160156 2.945312 0.148438 2.921875 0.125 C 2.894531 0.101562 2.882812 0.0859375 2.882812 0.0742188 C 2.882812 0.0195312 2.890625 -0.0585938 2.902344 -0.164062 C 2.917969 -0.265625 2.925781 -0.351562 2.925781 -0.425781 L 2.925781 -0.476562 C 2.84375 -0.347656 2.707031 -0.214844 2.523438 -0.0820312 C 2.339844 0.0507812 2.109375 0.117188 1.832031 0.117188 C 1.515625 0.117188 1.242188 0.0351562 1.011719 -0.132812 C 0.78125 -0.300781 0.605469 -0.515625 0.480469 -0.773438 C 0.355469 -1.035156 0.292969 -1.304688 0.292969 -1.582031 C 0.292969 -1.90625 0.367188 -2.207031 0.515625 -2.492188 C 0.667969 -2.773438 0.882812 -3.003906 1.164062 -3.183594 C 1.445312 -3.359375 1.777344 -3.449219 2.167969 -3.449219 C 2.277344 -3.449219 2.390625 -3.441406 2.503906 -3.421875 C 2.617188 -3.402344 2.707031 -3.378906 2.765625 -3.359375 C 2.816406 -3.34375 2.851562 -3.332031 2.875 -3.332031 C 2.914062 -3.332031 2.933594 -3.398438 2.933594 -3.53125 L 2.933594 -4.714844 C 2.933594 -4.945312 2.898438 -5.097656 2.824219 -5.175781 C 2.753906 -5.253906 2.648438 -5.300781 2.515625 -5.324219 C 2.464844 -5.335938 2.441406 -5.371094 2.441406 -5.433594 C 2.441406 -5.484375 2.464844 -5.515625 2.507812 -5.53125 C 2.753906 -5.59375 2.945312 -5.652344 3.082031 -5.707031 C 3.222656 -5.761719 3.332031 -5.808594 3.40625 -5.839844 C 3.429688 -5.851562 3.453125 -5.859375 3.46875 -5.863281 C 3.488281 -5.867188 3.503906 -5.867188 3.515625 -5.867188 C 3.550781 -5.867188 3.570312 -5.851562 3.574219 -5.816406 C 3.574219 -5.78125 3.570312 -5.726562 3.5625 -5.644531 C 3.554688 -5.566406 3.542969 -5.445312 3.53125 -5.292969 C 3.519531 -5.136719 3.515625 -4.933594 3.515625 -4.683594 L 3.515625 -0.917969 C 3.515625 -0.726562 3.53125 -0.589844 3.558594 -0.503906 C 3.585938 -0.417969 3.628906 -0.375 3.691406 -0.375 C 3.71875 -0.375 3.769531 -0.378906 3.835938 -0.382812 C 3.90625 -0.390625 3.976562 -0.394531 4.050781 -0.398438 C 4.148438 -0.40625 4.199219 -0.378906 4.199219 -0.324219 C 4.199219 -0.285156 4.1875 -0.25 4.164062 -0.222656 C 4.136719 -0.191406 4.109375 -0.175781 4.082031 -0.175781 C 3.925781 -0.152344 3.773438 -0.121094 3.625 -0.078125 C 3.476562 -0.0390625 3.300781 0.0234375 3.109375 0.109375 C 3.0625 0.132812 3.035156 0.144531 3.019531 0.148438 C 3.007812 0.15625 2.992188 0.160156 2.976562 0.160156 Z M 2.132812 -0.316406 C 2.277344 -0.316406 2.417969 -0.355469 2.558594 -0.429688 C 2.695312 -0.503906 2.820312 -0.601562 2.925781 -0.726562 L 2.933594 -2.226562 C 2.933594 -2.375 2.890625 -2.523438 2.804688 -2.667969 C 2.71875 -2.8125 2.597656 -2.929688 2.445312 -3.019531 C 2.292969 -3.113281 2.113281 -3.160156 1.910156 -3.160156 C 1.78125 -3.160156 1.636719 -3.121094 1.476562 -3.042969 C 1.3125 -2.964844 1.175781 -2.828125 1.058594 -2.628906 C 0.941406 -2.433594 0.882812 -2.148438 0.882812 -1.773438 C 0.882812 -1.457031 0.929688 -1.203125 1.023438 -1.011719 C 1.117188 -0.820312 1.234375 -0.675781 1.371094 -0.574219 C 1.507812 -0.476562 1.644531 -0.40625 1.789062 -0.371094 C 1.929688 -0.335938 2.042969 -0.316406 2.132812 -0.316406 Z "/>
</g>
<g id="glyph-0-3">
<path d="M 1.773438 0.125 C 1.46875 0.125 1.203125 0.0507812 0.976562 -0.101562 C 0.746094 -0.25 0.570312 -0.460938 0.441406 -0.738281 C 0.3125 -1.011719 0.25 -1.332031 0.25 -1.691406 C 0.25 -2.015625 0.324219 -2.308594 0.472656 -2.570312 C 0.617188 -2.835938 0.8125 -3.046875 1.058594 -3.207031 C 1.304688 -3.367188 1.570312 -3.449219 1.859375 -3.449219 C 2.082031 -3.449219 2.277344 -3.40625 2.449219 -3.316406 C 2.621094 -3.226562 2.757812 -3.105469 2.855469 -2.945312 C 2.953125 -2.789062 3 -2.605469 3 -2.398438 C 3 -2.226562 2.917969 -2.140625 2.75 -2.140625 L 0.992188 -2.140625 C 0.914062 -2.140625 0.859375 -2.121094 0.828125 -2.078125 C 0.796875 -2.035156 0.785156 -1.957031 0.785156 -1.832031 C 0.785156 -1.566406 0.839844 -1.324219 0.957031 -1.105469 C 1.074219 -0.886719 1.230469 -0.710938 1.425781 -0.578125 C 1.621094 -0.449219 1.832031 -0.382812 2.066406 -0.382812 C 2.234375 -0.382812 2.382812 -0.414062 2.519531 -0.480469 C 2.65625 -0.542969 2.777344 -0.636719 2.882812 -0.757812 C 2.90625 -0.785156 2.921875 -0.804688 2.933594 -0.8125 C 2.945312 -0.820312 2.957031 -0.824219 2.976562 -0.824219 C 3.019531 -0.824219 3.042969 -0.796875 3.042969 -0.742188 C 3.042969 -0.636719 2.992188 -0.519531 2.890625 -0.390625 C 2.808594 -0.285156 2.707031 -0.195312 2.589844 -0.117188 C 2.472656 -0.0390625 2.347656 0.0195312 2.207031 0.0625 C 2.070312 0.105469 1.925781 0.125 1.773438 0.125 Z M 1.007812 -2.398438 L 1.765625 -2.398438 C 1.898438 -2.398438 2.015625 -2.402344 2.109375 -2.410156 C 2.203125 -2.414062 2.292969 -2.425781 2.382812 -2.441406 C 2.410156 -2.445312 2.429688 -2.464844 2.4375 -2.496094 C 2.445312 -2.527344 2.449219 -2.570312 2.449219 -2.625 C 2.449219 -2.785156 2.378906 -2.921875 2.238281 -3.039062 C 2.097656 -3.152344 1.925781 -3.207031 1.734375 -3.207031 C 1.605469 -3.207031 1.476562 -3.171875 1.351562 -3.097656 C 1.222656 -3.019531 1.117188 -2.925781 1.035156 -2.816406 C 0.949219 -2.707031 0.910156 -2.59375 0.910156 -2.484375 C 0.910156 -2.429688 0.941406 -2.398438 1.007812 -2.398438 Z "/>
</g>
<g id="glyph-0-4">
<path d="M 0.324219 0.0234375 C 0.296875 0.0234375 0.261719 0.0195312 0.222656 0.0117188 C 0.179688 0.00390625 0.160156 -0.015625 0.160156 -0.0507812 C 0.160156 -0.09375 0.179688 -0.125 0.222656 -0.144531 C 0.261719 -0.164062 0.304688 -0.183594 0.351562 -0.199219 C 0.433594 -0.226562 0.515625 -0.257812 0.589844 -0.296875 C 0.667969 -0.332031 0.707031 -0.40625 0.707031 -0.515625 L 0.707031 -4.714844 C 0.707031 -4.878906 0.679688 -5.011719 0.621094 -5.121094 C 0.5625 -5.230469 0.464844 -5.296875 0.324219 -5.324219 C 0.28125 -5.335938 0.257812 -5.371094 0.257812 -5.433594 C 0.257812 -5.488281 0.277344 -5.523438 0.316406 -5.53125 C 0.460938 -5.566406 0.585938 -5.601562 0.691406 -5.636719 C 0.796875 -5.671875 0.894531 -5.710938 0.988281 -5.75 C 1.078125 -5.789062 1.167969 -5.824219 1.257812 -5.859375 C 1.28125 -5.871094 1.296875 -5.875 1.308594 -5.875 C 1.320312 -5.875 1.328125 -5.867188 1.335938 -5.855469 C 1.34375 -5.839844 1.351562 -5.828125 1.351562 -5.816406 C 1.351562 -5.765625 1.339844 -5.660156 1.320312 -5.496094 C 1.300781 -5.332031 1.292969 -5.0625 1.292969 -4.683594 L 1.292969 -0.515625 C 1.292969 -0.40625 1.332031 -0.332031 1.410156 -0.296875 C 1.488281 -0.261719 1.566406 -0.226562 1.648438 -0.199219 C 1.695312 -0.183594 1.738281 -0.164062 1.777344 -0.144531 C 1.820312 -0.125 1.839844 -0.09375 1.839844 -0.0507812 C 1.839844 -0.015625 1.820312 0.00390625 1.777344 0.0117188 C 1.738281 0.0195312 1.703125 0.0234375 1.675781 0.0234375 C 1.570312 0.0234375 1.484375 0.0195312 1.421875 0.0117188 C 1.355469 0.00390625 1.296875 -0.00390625 1.238281 -0.0078125 C 1.179688 -0.015625 1.101562 -0.015625 1 -0.015625 C 0.90625 -0.015625 0.828125 -0.015625 0.765625 -0.0078125 C 0.707031 -0.00390625 0.644531 0.00390625 0.582031 0.0117188 C 0.523438 0.0195312 0.4375 0.0234375 0.324219 0.0234375 Z "/>
</g>
</g>
</defs>
<g fill="rgb(23.921569%, 22.352941%, 16.078431%)" fill-opacity="1">
<use xlink:href="#glyph-0-0" x="30" y="28.391602"/>
<use xlink:href="#glyph-0-1" x="36" y="28.391602"/>
<use xlink:href="#glyph-0-2" x="40" y="28.391602"/>
<use xlink:href="#glyph-0-3" x="44" y="28.391602"/>
<use xlink:href="#glyph-0-4" x="47" y="28.391602"/>
</g>
</svg>
