<?xml version="1.0" encoding="UTF-8"?>
<svg xmlns="http://www.w3.org/2000/svg" xmlns:xlink="http://www.w3.org/1999/xlink" width="3840" height="2160" viewBox="0 0 3840 2160">
<defs>
<g>
<g id="glyph-0-0">
<path d="M 8.515625 -2.308594 C 8.160156 -2.308594 7.800781 -2.382812 7.441406 -2.53125 C 7.085938 -2.679688 6.726562 -2.847656 6.371094 -3.035156 C 5.980469 -3.21875 5.585938 -3.394531 5.179688 -3.558594 C 4.777344 -3.722656 4.355469 -3.804688 3.921875 -3.804688 C 3.515625 -3.804688 3.125 -3.695312 2.753906 -3.476562 C 2.378906 -3.257812 2.074219 -3.039062 1.832031 -2.8125 C 1.589844 -2.585938 1.445312 -2.472656 1.398438 -2.472656 C 1.289062 -2.472656 1.179688 -2.570312 1.0625 -2.765625 C 0.945312 -2.960938 0.886719 -3.09375 0.886719 -3.171875 C 0.886719 -3.375 0.976562 -3.636719 1.15625 -3.953125 C 1.335938 -4.273438 1.574219 -4.59375 1.878906 -4.910156 C 2.183594 -5.230469 2.523438 -5.496094 2.90625 -5.703125 C 3.285156 -5.914062 3.679688 -6.019531 4.082031 -6.019531 C 4.457031 -6.019531 4.828125 -5.945312 5.203125 -5.796875 C 5.578125 -5.648438 5.949219 -5.484375 6.324219 -5.296875 C 6.726562 -5.09375 7.136719 -4.910156 7.546875 -4.75 C 7.960938 -4.585938 8.367188 -4.503906 8.773438 -4.503906 C 9.085938 -4.503906 9.382812 -4.574219 9.671875 -4.714844 C 9.960938 -4.855469 10.21875 -5.011719 10.453125 -5.191406 C 10.6875 -5.371094 10.882812 -5.53125 11.035156 -5.667969 C 11.191406 -5.808594 11.285156 -5.878906 11.316406 -5.878906 C 11.472656 -5.878906 11.597656 -5.796875 11.691406 -5.636719 C 11.785156 -5.472656 11.828125 -5.3125 11.828125 -5.15625 C 11.828125 -4.9375 11.734375 -4.671875 11.539062 -4.351562 C 11.34375 -4.03125 11.085938 -3.71875 10.769531 -3.40625 C 10.449219 -3.09375 10.089844 -2.835938 9.695312 -2.625 C 9.296875 -2.414062 8.90625 -2.308594 8.515625 -2.308594 Z M 8.515625 -6.347656 C 8.160156 -6.347656 7.800781 -6.421875 7.441406 -6.566406 C 7.085938 -6.714844 6.726562 -6.882812 6.371094 -7.070312 C 5.980469 -7.257812 5.585938 -7.429688 5.179688 -7.59375 C 4.777344 -7.757812 4.355469 -7.839844 3.921875 -7.839844 C 3.515625 -7.839844 3.125 -7.730469 2.753906 -7.511719 C 2.378906 -7.296875 2.074219 -7.074219 1.832031 -6.847656 C 1.589844 -6.621094 1.445312 -6.511719 1.398438 -6.511719 C 1.289062 -6.511719 1.179688 -6.605469 1.0625 -6.800781 C 0.945312 -6.996094 0.886719 -7.132812 0.886719 -7.210938 C 0.886719 -7.414062 0.976562 -7.671875 1.15625 -7.992188 C 1.335938 -8.3125 1.574219 -8.628906 1.878906 -8.949219 C 2.183594 -9.265625 2.523438 -9.53125 2.90625 -9.742188 C 3.285156 -9.953125 3.679688 -10.054688 4.082031 -10.054688 C 4.457031 -10.054688 4.828125 -9.984375 5.203125 -9.835938 C 5.578125 -9.6875 5.949219 -9.519531 6.324219 -9.332031 C 6.726562 -9.128906 7.136719 -8.949219 7.546875 -8.785156 C 7.960938 -8.621094 8.367188 -8.539062 8.773438 -8.539062 C 9.085938 -8.539062 9.382812 -8.609375 9.671875 -8.75 C 9.960938 -8.890625 10.21875 -9.050781 10.453125 -9.226562 C 10.6875 -9.40625 10.882812 -9.566406 11.035156 -9.707031 C 11.191406 -9.847656 11.285156 -9.917969 11.316406 -9.917969 C 11.472656 -9.917969 11.597656 -9.835938 11.691406 -9.671875 C 11.785156 -9.507812 11.828125 -9.347656 11.828125 -9.191406 C 11.828125 -8.976562 11.734375 -8.707031 11.539062 -8.386719 C 11.34375 -8.070312 11.085938 -7.753906 10.769531 -7.441406 C 10.449219 -7.132812 10.089844 -6.871094 9.695312 -6.660156 C 9.296875 -6.449219 8.90625 -6.347656 8.515625 -6.347656 Z "/>
</g>
<g id="glyph-0-1">
<rect x="0" y="0" width="0" height="0" mask="url(#mask-0)"/>
</g>
<g id="glyph-0-2">
<path d="M 3.101562 0.886719 C 2.886719 0.886719 2.644531 0.867188 2.378906 0.828125 C 2.113281 0.789062 1.984375 0.691406 1.984375 0.535156 C 1.984375 0.347656 2.085938 0.226562 2.285156 0.164062 C 2.488281 0.101562 2.707031 0.0546875 2.941406 0.0234375 C 3.890625 -0.0703125 4.722656 -0.308594 5.4375 -0.6875 C 6.152344 -1.070312 6.707031 -1.527344 7.105469 -2.066406 C 7.5 -2.601562 7.699219 -3.140625 7.699219 -3.6875 C 7.699219 -4.277344 7.550781 -4.792969 7.257812 -5.226562 C 6.960938 -5.664062 6.492188 -6.054688 5.84375 -6.40625 C 5.199219 -6.753906 4.347656 -7.085938 3.289062 -7.398438 C 2.808594 -7.566406 2.476562 -7.738281 2.296875 -7.910156 C 2.117188 -8.082031 2.03125 -8.3125 2.03125 -8.609375 C 2.03125 -8.828125 2.078125 -9.136719 2.171875 -9.53125 C 2.265625 -9.929688 2.367188 -10.34375 2.484375 -10.78125 C 2.601562 -11.214844 2.71875 -11.617188 2.835938 -11.980469 C 2.953125 -12.347656 3.019531 -12.59375 3.035156 -12.714844 C 3.128906 -13.089844 3.277344 -13.359375 3.488281 -13.519531 C 3.699219 -13.683594 3.925781 -13.796875 4.175781 -13.859375 C 4.472656 -13.9375 4.871094 -14.019531 5.378906 -14.105469 C 5.882812 -14.191406 6.417969 -14.277344 6.976562 -14.363281 C 7.535156 -14.449219 8.042969 -14.519531 8.492188 -14.582031 C 8.945312 -14.644531 9.253906 -14.675781 9.425781 -14.675781 C 9.550781 -14.691406 9.644531 -14.644531 9.707031 -14.535156 C 9.769531 -14.425781 9.792969 -14.3125 9.777344 -14.1875 C 9.746094 -13.96875 9.667969 -13.722656 9.542969 -13.453125 C 9.417969 -13.179688 9.308594 -12.925781 9.214844 -12.691406 C 9.105469 -12.382812 8.921875 -12.128906 8.65625 -11.933594 C 8.390625 -11.738281 8.089844 -11.628906 7.746094 -11.597656 C 7.496094 -11.566406 7.179688 -11.546875 6.789062 -11.539062 C 6.402344 -11.53125 6.011719 -11.515625 5.625 -11.492188 C 5.234375 -11.46875 4.882812 -11.453125 4.574219 -11.445312 C 4.261719 -11.4375 4.035156 -11.417969 3.898438 -11.386719 C 3.789062 -11.371094 3.695312 -11.304688 3.617188 -11.1875 C 3.539062 -11.070312 3.476562 -10.945312 3.429688 -10.816406 C 3.382812 -10.683594 3.359375 -10.578125 3.359375 -10.5 C 3.359375 -10.421875 3.382812 -10.355469 3.429688 -10.300781 C 3.476562 -10.246094 3.539062 -10.210938 3.617188 -10.195312 C 4.488281 -10.039062 5.253906 -9.84375 5.914062 -9.601562 C 6.574219 -9.359375 7.1875 -9.101562 7.746094 -8.820312 C 8.742188 -8.351562 9.457031 -7.757812 9.894531 -7.035156 C 10.328125 -6.3125 10.546875 -5.523438 10.546875 -4.667969 C 10.546875 -3.8125 10.28125 -2.984375 9.753906 -2.179688 C 9.222656 -1.378906 8.523438 -0.738281 7.652344 -0.257812 C 7.34375 -0.0859375 6.941406 0.0898438 6.453125 0.269531 C 5.960938 0.449219 5.429688 0.59375 4.851562 0.710938 C 4.277344 0.828125 3.695312 0.886719 3.101562 0.886719 Z "/>
</g>
<g id="glyph-0-3">
<path d="M 2.855469 0.710938 C 2.347656 0.710938 1.90625 0.523438 1.535156 0.152344 C 1.164062 -0.21875 0.980469 -0.660156 0.980469 -1.167969 C 0.980469 -1.714844 1.164062 -2.175781 1.535156 -2.546875 C 1.90625 -2.917969 2.347656 -3.101562 2.855469 -3.101562 C 3.40625 -3.101562 3.863281 -2.917969 4.234375 -2.546875 C 4.605469 -2.175781 4.789062 -1.714844 4.789062 -1.167969 C 4.789062 -0.660156 4.605469 -0.21875 4.234375 0.152344 C 3.863281 0.523438 3.40625 0.710938 2.855469 0.710938 Z "/>
</g>
<g id="glyph-0-4">
<path d="M 3.921875 0.699219 C 3.734375 0.699219 3.574219 0.625 3.441406 0.476562 C 3.308594 0.328125 3.242188 0.15625 3.242188 -0.046875 C 3.242188 -0.15625 3.320312 -0.332031 3.476562 -0.570312 C 3.632812 -0.8125 3.765625 -1.035156 3.875 -1.238281 L 9.496094 -11.292969 C 9.558594 -11.417969 9.5625 -11.503906 9.507812 -11.550781 C 9.453125 -11.597656 9.363281 -11.621094 9.238281 -11.621094 L 4.011719 -11.621094 C 3.625 -11.621094 3.3125 -11.554688 3.078125 -11.421875 C 2.847656 -11.289062 2.613281 -11.058594 2.378906 -10.734375 C 2.316406 -10.65625 2.226562 -10.519531 2.113281 -10.324219 C 1.996094 -10.128906 1.859375 -9.953125 1.703125 -9.789062 C 1.546875 -9.625 1.390625 -9.542969 1.238281 -9.542969 C 1.144531 -9.542969 1.058594 -9.582031 0.980469 -9.660156 C 0.902344 -9.738281 0.863281 -9.832031 0.863281 -9.941406 C 0.863281 -10.050781 0.902344 -10.234375 0.980469 -10.5 C 1.058594 -10.765625 1.105469 -10.941406 1.121094 -11.035156 C 1.214844 -11.550781 1.328125 -12.101562 1.46875 -12.691406 C 1.609375 -13.285156 1.679688 -13.796875 1.679688 -14.234375 C 1.679688 -14.40625 1.742188 -14.515625 1.867188 -14.570312 C 1.992188 -14.625 2.09375 -14.644531 2.171875 -14.628906 C 2.355469 -14.613281 2.65625 -14.574219 3.066406 -14.511719 C 3.480469 -14.449219 3.933594 -14.402344 4.433594 -14.375 C 4.808594 -14.375 5.242188 -14.371094 5.738281 -14.363281 C 6.238281 -14.355469 6.722656 -14.347656 7.199219 -14.339844 C 7.671875 -14.332031 8.066406 -14.328125 8.375 -14.328125 C 8.953125 -14.328125 9.472656 -14.332031 9.941406 -14.339844 C 10.40625 -14.347656 10.824219 -14.359375 11.1875 -14.375 C 11.554688 -14.390625 11.851562 -14.402344 12.085938 -14.417969 C 12.148438 -14.417969 12.203125 -14.367188 12.25 -14.257812 C 12.296875 -14.148438 12.320312 -14.039062 12.320312 -13.929688 C 12.320312 -13.851562 12.277344 -13.738281 12.191406 -13.589844 C 12.105469 -13.441406 12 -13.269531 11.875 -13.066406 C 11.75 -12.863281 11.613281 -12.640625 11.457031 -12.390625 L 4.457031 -0.046875 C 4.378906 0.09375 4.28125 0.253906 4.164062 0.433594 C 4.046875 0.609375 3.964844 0.699219 3.921875 0.699219 Z "/>
</g>
</g>
<image id="source-44" x="0" y="0" width="0" height="0"/>
<mask id="mask-0">
<use xlink:href="#source-44"/>
</mask>
</defs>
<g fill="rgb(85.098039%, 46.666667%, 34.117647%)" fill-opacity="1">
<use xlink:href="#glyph-0-0" x="30" y="43.496094"/>
<use xlink:href="#glyph-0-1" x="43" y="43.496094"/>
<use xlink:href="#glyph-0-2" x="49" y="43.496094"/>
<use xlink:href="#glyph-0-3" x="61" y="43.496094"/>
<use xlink:href="#glyph-0-4" x="67" y="43.496094"/>
</g>
</svg>
