<?xml version="1.0" encoding="UTF-8"?>
<svg xmlns="http://www.w3.org/2000/svg" xmlns:xlink="http://www.w3.org/1999/xlink" width="3840" height="2160" viewBox="0 0 3840 2160">
<defs>
<g>
<g id="glyph-0-0">
<path d="M 2.59375 -3.070312 C 2.515625 -3.070312 2.421875 -3.121094 2.3125 -3.214844 C 2.207031 -3.3125 2.105469 -3.445312 2.011719 -3.617188 C 1.914062 -3.804688 1.824219 -4.03125 1.730469 -4.289062 C 1.640625 -4.546875 1.597656 -4.847656 1.597656 -5.191406 C 1.597656 -5.605469 1.769531 -5.964844 2.121094 -6.265625 C 2.46875 -6.566406 2.992188 -6.878906 3.683594 -7.199219 C 4.039062 -7.359375 4.320312 -7.546875 4.523438 -7.753906 C 4.726562 -7.964844 4.828125 -8.230469 4.828125 -8.550781 C 4.828125 -8.910156 4.691406 -9.183594 4.425781 -9.367188 C 4.160156 -9.550781 3.84375 -9.644531 3.484375 -9.648438 C 3.234375 -9.648438 3.046875 -9.625 2.917969 -9.578125 C 2.789062 -9.535156 2.6875 -9.496094 2.605469 -9.464844 C 2.527344 -9.433594 2.441406 -9.410156 2.347656 -9.386719 C 2.253906 -9.367188 2.144531 -9.355469 2.019531 -9.355469 C 1.851562 -9.355469 1.6875 -9.441406 1.527344 -9.609375 C 1.363281 -9.777344 1.230469 -9.980469 1.125 -10.21875 C 1.019531 -10.457031 0.96875 -10.675781 0.96875 -10.878906 C 0.96875 -11.09375 1.089844 -11.292969 1.339844 -11.476562 C 1.585938 -11.660156 1.871094 -11.75 2.1875 -11.75 C 2.660156 -11.75 3.117188 -11.632812 3.558594 -11.398438 C 4 -11.160156 4.410156 -10.84375 4.792969 -10.4375 C 5.078125 -10.144531 5.320312 -9.824219 5.519531 -9.476562 C 5.71875 -9.128906 5.875 -8.773438 5.988281 -8.410156 C 6.101562 -8.046875 6.15625 -7.691406 6.15625 -7.34375 C 6.15625 -6.867188 6.066406 -6.488281 5.886719 -6.214844 C 5.707031 -5.941406 5.507812 -5.75 5.292969 -5.644531 C 5.109375 -5.550781 4.933594 -5.457031 4.765625 -5.359375 C 4.597656 -5.257812 4.425781 -5.160156 4.25 -5.058594 C 4.078125 -4.957031 3.890625 -4.851562 3.691406 -4.738281 C 3.433594 -4.605469 3.257812 -4.449219 3.171875 -4.273438 C 3.082031 -4.097656 3.015625 -3.839844 2.976562 -3.496094 C 2.964844 -3.363281 2.929688 -3.261719 2.863281 -3.183594 C 2.796875 -3.109375 2.707031 -3.070312 2.59375 -3.070312 Z M 2.578125 0.25 C 2.222656 0.25 1.921875 0.125 1.671875 -0.128906 C 1.417969 -0.378906 1.292969 -0.683594 1.292969 -1.035156 C 1.292969 -1.390625 1.417969 -1.695312 1.671875 -1.945312 C 1.921875 -2.195312 2.222656 -2.320312 2.578125 -2.320312 C 2.933594 -2.320312 3.238281 -2.195312 3.488281 -1.945312 C 3.738281 -1.695312 3.863281 -1.390625 3.863281 -1.035156 C 3.863281 -0.679688 3.738281 -0.378906 3.488281 -0.128906 C 3.238281 0.121094 2.933594 0.25 2.578125 0.25 Z "/>
</g>
</g>
</defs>
<g fill="rgb(23.921569%, 22.352941%, 16.078431%)" fill-opacity="1">
<use xlink:href="#glyph-0-0" x="30" y="37.901367"/>
</g>
</svg>
